<?xml version="1.0" encoding="utf-8"?>
<!-- Generator: Adobe Illustrator 27.1.1, SVG Export Plug-In . SVG Version: 6.00 Build 0)  -->
<svg version="1.1" xmlns="http://www.w3.org/2000/svg" xmlns:xlink="http://www.w3.org/1999/xlink" x="0px" y="0px"
	 viewBox="0 0 210 300" style="enable-background:new 0 0 210 300;" xml:space="preserve">
<style type="text/css">
  
	.base{fill:#B3B3B3;}
	.extension-fond { fill:#4D4D4D; }
	.extension-text {
      fill: white;
      font-family: "CMU Sans Serif", "Helvetica-Neue", "Liberation Sans", system-ui, sans-serif;
      font-size: 74px;
      text-anchor: middle;
      dominant-baseline: middle;
    }
    #dogear .ear { fill: #999999}
    #dogear .back { fill: white }
    
	.st2{display:inline;}
	.pdf-red{fill:#FF2116;}

    #Text .line {display:inline;fill:none;stroke:#333333;
                 stroke-width:3;stroke-miterlimit:10;}
                 
	#Rasterimage .goethe{fill:#CCCCCC;}
    
	#ZIP .st6{fill:none;stroke:#000000;stroke-width:1.137;stroke-miterlimit:10;}
    #ZIP .st7{stroke:#000000;stroke-width:1.137;stroke-miterlimit:10;}
	#ZIP .st8{stroke:#FFFFFF;stroke-width:2.2741;stroke-miterlimit:10;}
	#ZIP .st9{fill:none;stroke:#FFFFFF;stroke-width:2.2741;
              stroke-miterlimit:10;}
	#ZIP .st10{stroke:#FFFFFF;stroke-width:1.137;stroke-miterlimit:10;}

    
    #PDF, #Text, #Rasterimage, #ZIP { display: none }

    #all.text { #Text { display: inline } }
    #all.text #dogear .ear { fill: #025c8e }
    #all.text .base { fill: #a0b1ba }
    #all.text .extension-fond { fill: #0071bc }

    
    #all.rasterimage { #Rasterimage { display: inline } }
    #all.rasterimage #dogear .ear { fill: #006837 }
    #all.rasterimage .base { fill: #639e7d }
    #all.rasterimage .extension-fond { fill: #006837 }

    #all.pdf { #PDF { display: inline } }
    #all.pdf #dogear .ear { fill: #f96464 }
    #all.pdf .base { fill: #fcd5d4 }
    #all.pdf .extension-fond { fill: #f96464 }

    #all.zip { #ZIP { display: inline } }
    
</style>
<g id="all">
  <g id="base">
	<polygon class="base"
             points="151.4,0 0,0 0,300 210,300 210,58.6 180.7,29.3 	"/>
  </g>
  <g id="PDF">
	<g transform="translate(53.548057 -183.975276) scale(1.4843)" class="st2">
	  <path class="pdf-red" d="M-1.3,223.5c-4.1-4.1,0.3-9.8,12.5-15.8l7.6-3.8l3-6.5c1.6-3.6,4.1-9.4,5.4-13l2.4-6.5l-1.7-4.8
			               c-2.1-5.9-2.8-14.7-1.5-17.9c1.8-4.3,7.6-3.9,9.9,0.8c1.8,3.6,1.6,10.1-0.5,18.4l-1.8,6.8l1.5,2.6c0.9,1.4,3.3,4.9,5.5,7.6
			               l4.1,5.1l5.1-0.7c16.2-2.1,21.8,1.5,21.8,6.6c0,6.5-12.8,7.1-23.5-0.5c-2.4-1.7-4.1-3.4-4.1-3.4s-6.7,1.4-10,2.3
			               c-3.4,0.9-5.1,1.5-10.1,3.2c0,0-1.8,2.5-2.9,4.4c-4.2,6.9-9.2,12.6-12.8,14.7C4.9,225.5,0.8,225.6-1.3,223.5z M5.1,221.2
			               c2.3-1.4,7-7,10.3-12.1l1.3-2.1l-6,3c-9.3,4.7-13.5,9-11.3,11.7C0.7,223.2,2.2,223.1,5.1,221.2L5.1,221.2z M65.3,204.3
			               c2.3-1.6,1.9-4.8-0.6-6.1c-2-1-3.6-1.2-8.8-1.1c-3.2,0.2-8.3,0.9-9.2,1.1c0,0,2.8,1.9,4.1,2.7c1.7,1,5.7,2.7,8.7,3.6
			               C62.3,205.3,64,205.3,65.3,204.3L65.3,204.3z M41.1,194.3c-1.4-1.4-3.7-4.5-5.2-6.7c-1.9-2.5-2.9-4.3-2.9-4.3s-1.4,4.6-2.6,7.3
			               l-3.6,9l-1.1,2c0,0,5.6-1.8,8.4-2.6c3-0.8,9.1-2,9.1-2L41.1,194.3z M33.3,163c0.4-2.9,0.5-5.9-0.4-7.4c-2.6-2.9-5.8-0.5-5.2,6.3
			               c0.2,2.3,0.7,6.2,1.5,8.6l1.4,4.4l1-3.3C32,169.9,32.8,166,33.3,163L33.3,163z"/>
	</g>
  </g>
  
  <g id="Text">
	<line class="line" x1="27.3" y1="29.5" x2="180.7" y2="29.3"/>
	<line class="line" x1="27.3" y1="54.4" x2="182.7" y2="54.4"/>
	<line class="line" x1="27.3" y1="79.2" x2="182.7" y2="79.2"/>
	<line class="line" x1="49.3" y1="110.1" x2="182.7" y2="110.1"/>
	<line class="line" x1="27.3" y1="138" x2="182.7" y2="138"/>
	<line class="line" x1="27.3" y1="161.7" x2="182.7" y2="161.7"/>
  </g>
  
  <g id="Rasterimage">
	<path class="goethe" d="M58.8,178.4c-0.3,0-0.8-0.7-1.3-1.5c-0.4-0.8-0.7-1.7-0.5-2c0.2-0.2,0.5-1.2,0.7-2.1c0.2-0.9,0.5-2.1,0.5-2.7
		                 c0-0.7,0.3-1.1,0.9-1.4c0.8-0.3,0.9-0.5,0.8-2.5c-0.1-1.2-0.2-2.4-0.3-2.7c-0.1-0.3-0.3-1.2-0.4-1.9c-0.1-1,0-1.4,0.5-1.8
		                 c0.4-0.2,0.9-0.4,1.1-0.4c0.2,0,0.7-0.3,1.1-0.7c0.4-0.4,1-0.9,1.4-1.1c0.6-0.3,0.6-0.5-0.4-1.9c-0.9-1.4-1-1.6-0.5-3
		                 c0.3-0.8,0.8-1.8,1.1-2.2c0.3-0.4,0.8-1.3,1.1-1.9c0.3-0.7,0.8-1.5,1.2-1.8c0.5-0.4,1.4-0.6,2.7-0.7c1.7,0,2.2,0.1,3.5,1.2
		                 c1.4,1.2,1.5,1.2,1.6,0.4c0.1-0.4-0.3-2.4-0.7-4.4c-0.5-2-1.1-4.1-1.3-4.8c-0.3-0.7-0.7-1.3-0.8-1.4s-0.5-0.8-0.8-1.5
		                 c-0.4-1.2-0.3-1.5,0.5-2.8c0.5-0.8,1-1.7,1-2s0.3-0.8,0.7-1.1c0.4-0.3,1.2-0.7,1.8-0.8c0.6-0.1,1.5-0.6,2-1.1
		                 c0.5-0.5,0.8-1,0.6-1.4c-0.1-0.4,0.1-0.9,0.7-1.3c0.5-0.4,1.2-0.5,1.6-0.4c0.5,0.2,0.5,0.1-0.2-0.6c-0.7-0.7-1.4-0.9-4.7-1.1
		                 c-2.3-0.2-4.7-0.6-5.7-1c-1-0.4-2.8-0.9-4.1-1.2c-1.2-0.3-2.7-0.7-3.3-1c-0.6-0.3-1.4-1.1-1.9-1.7c-0.5-0.7-1.1-1.9-1.4-2.6
		                 c-0.3-0.8-0.4-2.1-0.2-3c0.1-0.9,0.5-1.9,0.8-2.3c0.3-0.4,0.5-1.2,0.5-1.9c0-0.8-0.4-1.8-1.3-2.9c-1.1-1.4-1.5-2-1.4-2.9
		                 c0.1-0.6,0.9-1.4,1.2-1.8c0.6-0.7,0.6-0.7,0-1.1c-0.8-0.6-2.2-1.4-2.2-2.5c0.2-1.6,1.1-2,1.1-3.1c0-0.5-0.1-1.3-0.2-1.6
		                 c-0.1-0.3-0.7-0.8-1.2-1.1c-0.5-0.3-2.1-0.6-3.4-0.8c-1.9-0.2-2.6-0.5-3.5-1.3c-0.8-0.8-1-1.4-1-2.5c0-1.1,1.5-3.5,2.4-4.3
		                 c0.9-0.9,2-3.8,2.8-5.2c0.7-1.3,2.4-3.7,4.1-5.9c1.6-2.1,2.5-4,2.7-4.7c0.2-0.7,0.3-1.8,0.2-2.5c-0.1-0.7-0.6-1.9-1-2.7
		                 c-0.6-1.3-0.7-1.7-0.3-2.9c0.2-0.8,0.6-1.4,0.8-1.4c0.3,0,0.4-0.5,0.6-1.1c0.1-0.6,0.8-2,1.5-3c0.7-1.1,1.7-3.3,2.3-5
		                 c0.6-1.7,1.6-4,2.2-5.1c0.7-1.1,2.2-3,3.5-4.2c1.7-1.6,2.3-2.6,2.7-3.9c0.4-1.4,1.1-2.4,3.3-4.6c2-2,3-3.4,3.5-4.7
		                 c0.4-1,1.3-2.6,2-3.6c0.7-0.9,2.6-2.7,4.1-3.9c1.8-1.4,3.7-2.5,5.3-3c1.4-0.5,3.3-1,4.2-1.1c1-0.1,3.6,0,6.3,0.4
		                 c2.6,0.4,5.6,1,6.7,1.5c1.1,0.5,2.6,1,3.4,1.1c0.7,0.2,2.6,0.8,4.3,1.4c1.7,0.7,4.9,2.4,7.5,4.2c2.5,1.7,5.7,3.5,7.1,4.1
		                 c1.4,0.6,3.7,1.7,4.9,2.4c1.4,0.8,3.3,2.3,4.9,4c1.5,1.6,3.1,3.7,3.8,5.1c0.6,1.3,1.8,3.1,2.6,3.9c0.8,0.9,1.9,2.4,2.5,3.4
		                 c0.6,1,1.6,2.5,2.2,3.3c0.7,0.8,1.6,2.2,2,3.1c0.4,0.9,1,2.7,1.2,4.1c0.2,1.4,0.5,3,0.7,3.7c0.2,0.6,0.7,2,1.2,3
		                 c0.7,1.5,0.9,2.7,1,7.1c0.1,3,0,6.2-0.3,7.6c-0.2,1.3-0.8,3.1-1.2,4c-0.4,0.9-1.7,2.9-3,4.5c-1.2,1.6-2.2,3.1-2.2,3.3
		                 s0.2,0.1,0.5-0.1c0.3-0.3,1-0.4,1.6-0.2c0.6,0.1,1.6,0.9,2.3,1.8c0.9,1.1,1.4,2.1,1.6,3.4c0.1,1,0.3,2.4,0.3,2.9
		                 c0,0.7-0.4,1.5-1.2,2.4c-0.7,0.8-1.5,1.8-1.7,2.2c-0.2,0.5-0.3,0.8-0.1,0.8c0.2,0,0.7-0.5,1.1-1.1c0.6-0.8,1.1-1.1,1.9-1.1
		                 c0.6,0,1.2,0.2,1.4,0.4c0.3,0.3,0.6,0.3,1.2,0c0.5-0.2,1.2-0.3,1.7-0.2c0.5,0.1,0.9,0.5,1,0.9s0.7,0.9,1.3,1.2
		                 c0.6,0.3,1.2,0.9,1.3,1.4c0.1,0.5,0.5,2.5,0.7,4.5c0.3,2,0.5,5.7,0.6,8.2c0.1,2.6,0.2,5.6,0.2,6.7c0,1.1-0.2,3.5-0.4,5.3
		                 c-0.5,3.2-0.5,3.3,0.6,6.5c0.9,2.9,1.1,3.9,1.1,8.2c0,3.9-0.1,5.1-0.6,6.2c-0.4,0.7-1.1,2-1.6,2.8c-0.7,1.2-0.9,1.8-0.7,2.9
		                 c0.2,1.1-0.1,2-1.4,4.7c-0.9,1.9-2.2,3.8-3,4.6c-0.8,0.7-1.8,2-2.3,2.9c-0.6,1.1-1.3,1.7-2.3,2.2c-0.8,0.3-1.8,0.6-2.3,0.6
		                 c-0.5,0-1.1,0.2-1.4,0.5c-0.3,0.3-1.1,0.6-1.8,0.7s-1.8,0-2.4-0.3c-0.6-0.3-2-1.3-3.1-2.2c-1.4-1.3-2.3-2.6-3.3-4.6
		                 c-0.7-1.6-1.7-3.3-2-3.8c-0.4-0.5-1-2.5-1.3-4.3c-0.3-1.8-0.9-4.2-1.1-5.2c-0.3-1-0.5-2.5-0.5-3.3c0-0.8-0.1-1.4-0.3-1.4
		                 c-0.2,0-1.2,1.2-2.2,2.6c-1.1,1.4-2.5,3.1-3.3,3.8c-0.8,0.7-2.6,1.8-4.1,2.5c-1.5,0.7-4,1.5-5.6,1.8c-1.6,0.3-5,1.1-7.5,1.7
		                 c-2.5,0.6-5.5,1.6-6.7,2.1c-1.2,0.5-3,1.3-3.9,1.9c-0.9,0.5-2.9,1.9-4.3,3c-1.9,1.4-3.7,2.4-6.2,3.3c-1.9,0.7-5.1,2-7,2.8
		                 c-1.9,0.9-5.2,2-7.3,2.5c-2.1,0.5-5.2,1.4-6.9,2c-1.9,0.7-3.9,1.1-5,1.1c-1.1,0-2.6,0.3-3.6,0.7C60,178.1,59,178.4,58.8,178.4
		                 L58.8,178.4z M129.6,123.4c0.1,0,0.1-1.6-0.1-3.5c-0.1-1.9-0.4-3.9-0.6-4.4l-0.4-0.9L128,116c-0.3,0.8-0.6,1.9-0.6,2.6
		                 c0,0.6,0.5,2,1,3C129,122.6,129.5,123.4,129.6,123.4L129.6,123.4z"/>
  </g>
  <g id="ZIP">
	<g id="zippferme">
	  <line class="st6" x1="101.1" y1="235.4" x2="101.1" y2="235.1"/>
	  <path class="st7" d="M110.4,230.8c0,0.5,0,1.4-0.5,2.3c-0.2,0.4-0.5,0.8-1,1c0,0-0.7,0.2-1.2-0.1c-0.3-0.2-0.2-0.5-0.4-0.8
			               c-0.4-0.8-1.3-1-1.6-1.1c-0.8-0.2-1.5,0-2.1,0.1c-0.4,0.1-1.2,0.4-1.9,1.1c-0.3,0.3-0.5,0.7-0.6,0.9v1h-7.5v-9h7.5v1.3
			               c0.1,0.2,0.3,0.6,0.6,0.9c0.6,0.7,1.4,1,1.9,1.1c0.6,0.2,1.2,0.4,2.1,0.1c0.3-0.1,1.2-0.3,1.6-1.1c0.2-0.4,0.2-0.6,0.4-0.8
			               c0.5-0.4,1.2-0.1,1.2-0.1c0.5,0.2,0.8,0.6,1,1C110.4,229.4,110.4,230.2,110.4,230.8z"/>
	  <path class="st7" d="M110.4,218.9c0,0.5,0,1.4-0.5,2.3c-0.2,0.4-0.5,0.8-1,1c0,0-0.7,0.2-1.2-0.1c-0.3-0.2-0.2-0.5-0.4-0.8
			               c-0.4-0.8-1.3-1-1.6-1.1c-0.8-0.2-1.5,0-2.1,0.1c-0.4,0.1-1.2,0.4-1.9,1.1c-0.3,0.3-0.5,0.7-0.6,0.9v1h-7.5v-9h7.5v1.3
			               c0.1,0.2,0.3,0.6,0.6,0.9c0.6,0.7,1.4,1,1.9,1.1c0.6,0.2,1.2,0.4,2.1,0.1c0.3-0.1,1.2-0.3,1.6-1.1c0.2-0.4,0.2-0.6,0.4-0.8
			               c0.5-0.4,1.2-0.1,1.2-0.1c0.5,0.2,0.8,0.6,1,1C110.4,217.4,110.4,218.3,110.4,218.9z"/>
	  <path class="st7" d="M102.5,224.8c0,0.5,0,1.4,0.5,2.3c0.2,0.4,0.5,0.8,1,1c0,0,0.7,0.2,1.2-0.1c0.3-0.2,0.2-0.5,0.4-0.8
			               c0.4-0.8,1.3-1,1.6-1.1c0.8-0.2,1.5,0,2.1,0.1c0.4,0.1,1.2,0.4,1.9,1.1c0.3,0.3,0.5,0.7,0.6,0.9v1h7.5v-9h-7.5v1.3
			               c-0.1,0.2-0.3,0.6-0.6,0.9c-0.6,0.7-1.4,1-1.9,1.1c-0.6,0.2-1.2,0.4-2.1,0.1c-0.3-0.1-1.2-0.3-1.6-1.1c-0.2-0.4-0.2-0.6-0.4-0.8
			               c-0.5-0.4-1.2-0.1-1.2-0.1c-0.5,0.2-0.8,0.6-1,1C102.6,223.4,102.5,224.3,102.5,224.8z"/>
	  <path class="st7" d="M102.5,212.9c0,0.5,0,1.4,0.5,2.3c0.2,0.4,0.5,0.8,1,1c0,0,0.7,0.2,1.2-0.1c0.3-0.2,0.2-0.5,0.4-0.8
			               c0.4-0.8,1.3-1,1.6-1.1c0.8-0.2,1.5,0,2.1,0.1c0.4,0.1,1.2,0.4,1.9,1.1c0.3,0.3,0.5,0.7,0.6,0.9v1h7.5v-9h-7.5v1.3
			               c-0.1,0.2-0.3,0.6-0.6,0.9c-0.6,0.7-1.4,1-1.9,1.1c-0.6,0.2-1.2,0.4-2.1,0.1c-0.3-0.1-1.2-0.3-1.6-1.1c-0.2-0.4-0.2-0.6-0.4-0.8
			               c-0.5-0.4-1.2-0.1-1.2-0.1c-0.5,0.2-0.8,0.6-1,1C102.6,211.5,102.5,212.4,102.5,212.9z"/>
	  <path class="st7" d="M110.6,206.9c0,0.5,0,1.4-0.5,2.3c-0.2,0.4-0.5,0.8-1,1c0,0-0.7,0.2-1.2-0.1c-0.3-0.2-0.2-0.5-0.4-0.8
			               c-0.4-0.8-1.3-1-1.6-1.1c-0.8-0.2-1.5,0-2.1,0.1c-0.4,0.1-1.2,0.4-1.9,1.1c-0.3,0.3-0.5,0.7-0.6,0.9v1h-7.5v-9h7.5v1.3
			               c0.1,0.2,0.3,0.6,0.6,0.9c0.6,0.7,1.4,1,1.9,1.1c0.6,0.2,1.2,0.4,2.1,0.1c0.3-0.1,1.2-0.3,1.6-1.1c0.2-0.4,0.2-0.6,0.4-0.8
			               c0.5-0.4,1.2-0.1,1.2-0.1c0.5,0.2,0.8,0.6,1,1C110.6,205.5,110.6,206.4,110.6,206.9z"/>
	  <path class="st7" d="M110.6,195c0,0.5,0,1.4-0.5,2.3c-0.2,0.4-0.5,0.8-1,1c0,0-0.7,0.2-1.2-0.1c-0.3-0.2-0.2-0.5-0.4-0.8
			               c-0.4-0.8-1.3-1-1.6-1.1c-0.8-0.2-1.5,0-2.1,0.1c-0.4,0.1-1.2,0.4-1.9,1.1c-0.3,0.3-0.5,0.7-0.6,0.9v1h-7.5v-9h7.5v1.3
			               c0.1,0.2,0.3,0.6,0.6,0.9c0.6,0.7,1.4,1,1.9,1.1c0.6,0.2,1.2,0.4,2.1,0.1c0.3-0.1,1.2-0.3,1.6-1.1c0.2-0.4,0.2-0.6,0.4-0.8
			               c0.5-0.4,1.2-0.1,1.2-0.1c0.5,0.2,0.8,0.6,1,1C110.6,193.6,110.6,194.5,110.6,195z"/>
	  <path class="st7" d="M102.7,201c0,0.5,0,1.4,0.5,2.3c0.2,0.4,0.5,0.8,1,1c0,0,0.7,0.2,1.2-0.1c0.3-0.2,0.2-0.5,0.4-0.8
			               c0.4-0.8,1.3-1,1.6-1.1c0.8-0.2,1.5,0,2.1,0.1c0.4,0.1,1.2,0.4,1.9,1.1c0.3,0.3,0.5,0.7,0.6,0.9v1h7.5v-9h-7.5v1.3
			               c-0.1,0.2-0.3,0.6-0.6,0.9c-0.6,0.7-1.4,1-1.9,1.1c-0.6,0.2-1.2,0.4-2.1,0.1c-0.3-0.1-1.2-0.3-1.6-1.1c-0.2-0.4-0.2-0.6-0.4-0.8
			               c-0.5-0.4-1.2-0.1-1.2-0.1c-0.5,0.2-0.8,0.6-1,1C102.8,199.6,102.7,200.4,102.7,201z"/>
	  <path class="st7" d="M102.7,189.1c0,0.5,0,1.4,0.5,2.3c0.2,0.4,0.5,0.8,1,1c0,0,0.7,0.2,1.2-0.1c0.3-0.2,0.2-0.5,0.4-0.8
			               c0.4-0.8,1.3-1,1.6-1.1c0.8-0.2,1.5,0,2.1,0.1c0.4,0.1,1.2,0.4,1.9,1.1c0.3,0.3,0.5,0.7,0.6,0.9v1h7.5v-9h-7.5v1.3
			               c-0.1,0.2-0.3,0.6-0.6,0.9c-0.6,0.7-1.4,1-1.9,1.1c-0.6,0.2-1.2,0.4-2.1,0.1c-0.3-0.1-1.2-0.3-1.6-1.1c-0.2-0.4-0.2-0.6-0.4-0.8
			               c-0.5-0.4-1.2-0.1-1.2-0.1c-0.5,0.2-0.8,0.6-1,1C102.8,187.7,102.7,188.5,102.7,189.1z"/>
	  <path class="st7" d="M110.6,183c0,0.5,0,1.4-0.5,2.3c-0.2,0.4-0.5,0.8-1,1c0,0-0.7,0.2-1.2-0.1c-0.3-0.2-0.2-0.5-0.4-0.8
			               c-0.4-0.8-1.3-1-1.6-1.1c-0.8-0.2-1.5,0-2.1,0.1c-0.4,0.1-1.2,0.4-1.9,1.1c-0.3,0.3-0.5,0.7-0.6,0.9v1h-7.5v-9h7.5v1.3
			               c0.1,0.2,0.3,0.6,0.6,0.9c0.6,0.7,1.4,1,1.9,1.1c0.6,0.2,1.2,0.4,2.1,0.1c0.3-0.1,1.2-0.3,1.6-1.1c0.2-0.4,0.2-0.6,0.4-0.8
			               c0.5-0.4,1.2-0.1,1.2-0.1c0.5,0.2,0.8,0.6,1,1C110.6,181.6,110.6,182.5,110.6,183z"/>
	  <path class="st7" d="M110.6,171.1c0,0.5,0,1.4-0.5,2.3c-0.2,0.4-0.5,0.8-1,1c0,0-0.7,0.2-1.2-0.1c-0.3-0.2-0.2-0.5-0.4-0.8
			               c-0.4-0.8-1.3-1-1.6-1.1c-0.8-0.2-1.5,0-2.1,0.1c-0.4,0.1-1.2,0.4-1.9,1.1c-0.3,0.3-0.5,0.7-0.6,0.9v1h-7.5v-9h7.5v1.3
			               c0.1,0.2,0.3,0.6,0.6,0.9c0.6,0.7,1.4,1,1.9,1.1c0.6,0.2,1.2,0.4,2.1,0.1c0.3-0.1,1.2-0.3,1.6-1.1c0.2-0.4,0.2-0.6,0.4-0.8
			               c0.5-0.4,1.2-0.1,1.2-0.1c0.5,0.2,0.8,0.6,1,1C110.6,169.7,110.6,170.6,110.6,171.1z"/>
	  <path class="st7" d="M102.7,177.1c0,0.5,0,1.4,0.5,2.3c0.2,0.4,0.5,0.8,1,1c0,0,0.7,0.2,1.2-0.1c0.3-0.2,0.2-0.5,0.4-0.8
			               c0.4-0.8,1.3-1,1.6-1.1c0.8-0.2,1.5,0,2.1,0.1c0.4,0.1,1.2,0.4,1.9,1.1c0.3,0.3,0.5,0.7,0.6,0.9v1h7.5v-9h-7.5v1.3
			               c-0.1,0.2-0.3,0.6-0.6,0.9c-0.6,0.7-1.4,1-1.9,1.1c-0.6,0.2-1.2,0.4-2.1,0.1c-0.3-0.1-1.2-0.3-1.6-1.1c-0.2-0.4-0.2-0.6-0.4-0.8
			               c-0.5-0.4-1.2-0.1-1.2-0.1c-0.5,0.2-0.8,0.6-1,1C102.8,175.6,102.7,176.5,102.7,177.1z"/>
	  <path class="st7" d="M102.7,165.1c0,0.5,0,1.4,0.5,2.3c0.2,0.4,0.5,0.8,1,1c0,0,0.7,0.2,1.2-0.1c0.3-0.2,0.2-0.5,0.4-0.8
			               c0.4-0.8,1.3-1,1.6-1.1c0.8-0.2,1.5,0,2.1,0.1c0.4,0.1,1.2,0.4,1.9,1.1c0.3,0.3,0.5,0.7,0.6,0.9v1h7.5v-9h-7.5v1.3
			               c-0.1,0.2-0.3,0.6-0.6,0.9c-0.6,0.7-1.4,1-1.9,1.1c-0.6,0.2-1.2,0.4-2.1,0.1c-0.3-0.1-1.2-0.3-1.6-1.1c-0.2-0.4-0.2-0.6-0.4-0.8
			               c-0.5-0.4-1.2-0.1-1.2-0.1c-0.5,0.2-0.8,0.6-1,1C102.8,163.7,102.7,164.6,102.7,165.1z"/>
	  <path class="st7" d="M110.8,159.2c0,0.5,0,1.4-0.5,2.3c-0.2,0.4-0.5,0.8-1,1c0,0-0.7,0.2-1.2-0.1c-0.3-0.2-0.2-0.5-0.4-0.8
			               c-0.4-0.8-1.3-1-1.6-1.1c-0.8-0.2-1.5,0-2.1,0.1c-0.4,0.1-1.2,0.4-1.9,1.1c-0.3,0.3-0.5,0.7-0.6,0.9v1h-7.5v-9h7.5v1.3
			               c0.1,0.2,0.3,0.6,0.6,0.9c0.6,0.7,1.4,1,1.9,1.1c0.6,0.2,1.2,0.4,2.1,0.1c0.3-0.1,1.2-0.3,1.6-1.1c0.2-0.4,0.2-0.6,0.4-0.8
			               c0.5-0.4,1.2-0.1,1.2-0.1c0.5,0.2,0.8,0.6,1,1C110.8,157.8,110.8,158.6,110.8,159.2z"/>
	  <path class="st7" d="M110.8,147.3c0,0.5,0,1.4-0.5,2.3c-0.2,0.4-0.5,0.8-1,1c0,0-0.7,0.2-1.2-0.1c-0.3-0.2-0.2-0.5-0.4-0.8
			               c-0.4-0.8-1.3-1-1.6-1.1c-0.8-0.2-1.5,0-2.1,0.1c-0.4,0.1-1.2,0.4-1.9,1.1c-0.3,0.3-0.5,0.7-0.6,0.9v1h-7.5v-9h7.5v1.3
			               c0.1,0.2,0.3,0.6,0.6,0.9c0.6,0.7,1.4,1,1.9,1.1c0.6,0.2,1.2,0.4,2.1,0.1c0.3-0.1,1.2-0.3,1.6-1.1c0.2-0.4,0.2-0.6,0.4-0.8
			               c0.5-0.4,1.2-0.1,1.2-0.1c0.5,0.2,0.8,0.6,1,1C110.8,145.9,110.8,146.7,110.8,147.3z"/>
	  <path class="st7" d="M102.9,153.2c0,0.5,0,1.4,0.5,2.3c0.2,0.4,0.5,0.8,1,1c0,0,0.7,0.2,1.2-0.1c0.3-0.2,0.2-0.5,0.4-0.8
			               c0.4-0.8,1.3-1,1.6-1.1c0.8-0.2,1.5,0,2.1,0.1c0.4,0.1,1.2,0.4,1.9,1.1c0.3,0.3,0.5,0.7,0.6,0.9v1h7.5v-9h-7.5v1.3
			               c-0.1,0.2-0.3,0.6-0.6,0.9c-0.6,0.7-1.4,1-1.9,1.1c-0.6,0.2-1.2,0.4-2.1,0.1c-0.3-0.1-1.2-0.3-1.6-1.1c-0.2-0.4-0.2-0.6-0.4-0.8
			               c-0.5-0.4-1.2-0.1-1.2-0.1c-0.5,0.2-0.8,0.6-1,1C103,151.8,102.9,152.7,102.9,153.2z"/>
	  <path class="st7" d="M102.9,141.3c0,0.5,0,1.4,0.5,2.3c0.2,0.4,0.5,0.8,1,1c0,0,0.7,0.2,1.2-0.1c0.3-0.2,0.2-0.5,0.4-0.8
			               c0.4-0.8,1.3-1,1.6-1.1c0.8-0.2,1.5,0,2.1,0.1c0.4,0.1,1.2,0.4,1.9,1.1c0.3,0.3,0.5,0.7,0.6,0.9v1h7.5v-9h-7.5v1.3
			               c-0.1,0.2-0.3,0.6-0.6,0.9c-0.6,0.7-1.4,1-1.9,1.1c-0.6,0.2-1.2,0.4-2.1,0.1c-0.3-0.1-1.2-0.3-1.6-1.1c-0.2-0.4-0.2-0.6-0.4-0.8
			               c-0.5-0.4-1.2-0.1-1.2-0.1c-0.5,0.2-0.8,0.6-1,1C103,139.9,102.9,140.8,102.9,141.3z"/>
	  <path class="st7" d="M110.8,135.4c0,0.5,0,1.4-0.5,2.3c-0.2,0.4-0.5,0.8-1,1c0,0-0.7,0.2-1.2-0.1c-0.3-0.2-0.2-0.5-0.4-0.8
			               c-0.4-0.8-1.3-1-1.6-1.1c-0.8-0.2-1.5,0-2.1,0.1c-0.4,0.1-1.2,0.4-1.9,1.1c-0.3,0.3-0.5,0.7-0.6,0.9v1h-7.5v-9h7.5v1.3
			               c0.1,0.2,0.3,0.6,0.6,0.9c0.6,0.7,1.4,1,1.9,1.1c0.6,0.2,1.2,0.4,2.1,0.1c0.3-0.1,1.2-0.3,1.6-1.1c0.2-0.4,0.2-0.6,0.4-0.8
			               c0.5-0.4,1.2-0.1,1.2-0.1c0.5,0.2,0.8,0.6,1,1C110.8,134,110.8,134.8,110.8,135.4z"/>
	  <path class="st7" d="M110.8,123.5c0,0.5,0,1.4-0.5,2.3c-0.2,0.4-0.5,0.8-1,1c0,0-0.7,0.2-1.2-0.1c-0.3-0.2-0.2-0.5-0.4-0.8
			               c-0.4-0.8-1.3-1-1.6-1.1c-0.8-0.2-1.5,0-2.1,0.1c-0.4,0.1-1.2,0.4-1.9,1.1c-0.3,0.3-0.5,0.7-0.6,0.9v1h-7.5v-9h7.5v1.3
			               c0.1,0.2,0.3,0.6,0.6,0.9c0.6,0.7,1.4,1,1.9,1.1c0.6,0.2,1.2,0.4,2.1,0.1c0.3-0.1,1.2-0.3,1.6-1.1c0.2-0.4,0.2-0.6,0.4-0.8
			               c0.5-0.4,1.2-0.1,1.2-0.1c0.5,0.2,0.8,0.6,1,1C110.8,122.1,110.8,122.9,110.8,123.5z"/>
	  <path class="st7" d="M102.9,129.4c0,0.5,0,1.4,0.5,2.3c0.2,0.4,0.5,0.8,1,1c0,0,0.7,0.2,1.2-0.1c0.3-0.2,0.2-0.5,0.4-0.8
			               c0.4-0.8,1.3-1,1.6-1.1c0.8-0.2,1.5,0,2.1,0.1c0.4,0.1,1.2,0.4,1.9,1.1c0.3,0.3,0.5,0.7,0.6,0.9v1h7.5v-9h-7.5v1.3
			               c-0.1,0.2-0.3,0.6-0.6,0.9c-0.6,0.7-1.4,1-1.9,1.1c-0.6,0.2-1.2,0.4-2.1,0.1c-0.3-0.1-1.2-0.3-1.6-1.1c-0.2-0.4-0.2-0.6-0.4-0.8
			               c-0.5-0.4-1.2-0.1-1.2-0.1c-0.5,0.2-0.8,0.6-1,1C103,128,102.9,128.9,102.9,129.4z"/>
	  <path class="st7" d="M102.9,117.5c0,0.5,0,1.4,0.5,2.3c0.2,0.4,0.5,0.8,1,1c0,0,0.7,0.2,1.2-0.1c0.3-0.2,0.2-0.5,0.4-0.8
			               c0.4-0.8,1.3-1,1.6-1.1c0.8-0.2,1.5,0,2.1,0.1c0.4,0.1,1.2,0.4,1.9,1.1c0.3,0.3,0.5,0.7,0.6,0.9v1h7.5v-9h-7.5v1.3
			               c-0.1,0.2-0.3,0.6-0.6,0.9c-0.6,0.7-1.4,1-1.9,1.1c-0.6,0.2-1.2,0.4-2.1,0.1c-0.3-0.1-1.2-0.3-1.6-1.1c-0.2-0.4-0.2-0.6-0.4-0.8
			               c-0.5-0.4-1.2-0.1-1.2-0.1c-0.5,0.2-0.8,0.6-1,1C103,116.1,102.9,117,102.9,117.5z"/>
	  <path class="st7" d="M102.2,236.9c0-0.5,0-1.4,0.5-2.3c0.2-0.4,0.5-0.8,1-1c0,0,0.7-0.2,1.2,0.1c0.3,0.2,0.2,0.5,0.4,0.8
			               c0.4,0.8,1.3,1,1.6,1.1c0.8,0.2,1.5,0,2.1-0.1c0.4-0.1,1.2-0.4,1.9-1.1c0.3-0.3,0.5-0.7,0.6-0.9v-1h7.5v9h-7.5v-1.3
			               c-0.1-0.2-0.3-0.6-0.6-0.9c-0.6-0.7-1.4-1-1.9-1.1c-0.6-0.2-1.2-0.4-2.1-0.1c-0.3,0.1-1.2,0.3-1.6,1.1c-0.2,0.4-0.2,0.6-0.4,0.8
			               c-0.5,0.4-1.2,0.1-1.2,0.1c-0.5-0.2-0.8-0.6-1-1C102.2,238.3,102.1,237.5,102.2,236.9z"/>
	  <path class="st7" d="M102.2,248.9c0-0.5,0-1.4,0.5-2.3c0.2-0.4,0.5-0.8,1-1c0,0,0.7-0.2,1.2,0.1c0.3,0.2,0.2,0.5,0.4,0.8
			               c0.4,0.8,1.3,1,1.6,1.1c0.8,0.2,1.5,0,2.1-0.1c0.4-0.1,1.2-0.4,1.9-1.1c0.3-0.3,0.5-0.7,0.6-0.9v-1h7.5v9h-7.5v-1.3
			               c-0.1-0.2-0.3-0.6-0.6-0.9c-0.6-0.7-1.4-1-1.9-1.1c-0.6-0.2-1.2-0.4-2.1-0.1c-0.3,0.1-1.2,0.3-1.6,1.1c-0.2,0.4-0.2,0.6-0.4,0.8
			               c-0.5,0.4-1.2,0.1-1.2,0.1c-0.5-0.2-0.8-0.6-1-1C102.2,250.3,102.1,249.4,102.2,248.9z"/>
	  <path class="st7" d="M110,242.9c0-0.5,0-1.4-0.5-2.3c-0.2-0.4-0.5-0.8-1-1c0,0-0.7-0.2-1.2,0.1c-0.3,0.2-0.2,0.5-0.4,0.8
			               c-0.4,0.8-1.3,1-1.6,1.1c-0.8,0.2-1.5,0-2.1-0.1c-0.4-0.1-1.2-0.4-1.9-1.1c-0.3-0.3-0.5-0.7-0.6-0.9v-1h-7.5v9h7.5v-1.3
			               c0.1-0.2,0.3-0.6,0.6-0.9c0.6-0.7,1.4-1,1.9-1.1c0.6-0.2,1.2-0.4,2.1-0.1c0.3,0.1,1.2,0.3,1.6,1.1c0.2,0.4,0.2,0.6,0.4,0.8
			               c0.5,0.4,1.2,0.1,1.2,0.1c0.5-0.2,0.8-0.6,1-1C110,244.3,110,243.4,110,242.9z"/>
	  <path class="st7" d="M111,111.5c0,0.5,0,1.4-0.5,2.3c-0.2,0.4-0.5,0.8-1,1c0,0-0.7,0.2-1.2-0.1c-0.3-0.2-0.2-0.5-0.4-0.8
			               c-0.4-0.8-1.3-1-1.6-1.1c-0.8-0.2-1.5,0-2.1,0.1c-0.4,0.1-1.2,0.4-1.9,1.1c-0.3,0.3-0.5,0.7-0.6,0.9v1h-7.5v-9h7.5v1.3
			               c0.1,0.2,0.3,0.6,0.6,0.9c0.6,0.7,1.4,1,1.9,1.1c0.6,0.2,1.2,0.4,2.1,0.1c0.3-0.1,1.2-0.3,1.6-1.1c0.2-0.4,0.2-0.6,0.4-0.8
			               c0.5-0.4,1.2-0.1,1.2-0.1c0.5,0.2,0.8,0.6,1,1C110.9,110.1,111,111,111,111.5z"/>
	  <path class="st7" d="M111,99.6c0,0.5,0,1.4-0.5,2.3c-0.2,0.4-0.5,0.8-1,1c0,0-0.7,0.2-1.2-0.1c-0.3-0.2-0.2-0.5-0.4-0.8
			               c-0.4-0.8-1.3-1-1.6-1.1c-0.8-0.2-1.5,0-2.1,0.1c-0.4,0.1-1.2,0.4-1.9,1.1c-0.3,0.3-0.5,0.7-0.6,0.9v1h-7.5v-9h7.5v1.3
			               c0.1,0.2,0.3,0.6,0.6,0.9c0.6,0.7,1.4,1,1.9,1.1c0.6,0.2,1.2,0.4,2.1,0.1c0.3-0.1,1.2-0.3,1.6-1.1c0.2-0.4,0.2-0.6,0.4-0.8
			               c0.5-0.4,1.2-0.1,1.2-0.1c0.5,0.2,0.8,0.6,1,1C110.9,98.2,111,99.1,111,99.6z"/>
	  <path class="st7" d="M103.1,105.6c0,0.5,0,1.4,0.5,2.3c0.2,0.4,0.5,0.8,1,1c0,0,0.7,0.2,1.2-0.1c0.3-0.2,0.2-0.5,0.4-0.8
			               c0.4-0.8,1.3-1,1.6-1.1c0.8-0.2,1.5,0,2.1,0.1c0.4,0.1,1.2,0.4,1.9,1.1c0.3,0.3,0.5,0.7,0.6,0.9v1h7.5v-9h-7.5v1.3
			               c-0.1,0.2-0.3,0.6-0.6,0.9c-0.6,0.7-1.4,1-1.9,1.1c-0.6,0.2-1.2,0.4-2.1,0.1c-0.3-0.1-1.2-0.3-1.6-1.1c-0.2-0.4-0.2-0.6-0.4-0.8
			               c-0.5-0.4-1.2-0.1-1.2-0.1c-0.5,0.2-0.8,0.6-1,1C103.2,104.2,103.1,105.1,103.1,105.6z"/>
	  <path class="st7" d="M103.1,93.7c0,0.5,0,1.4,0.5,2.3c0.2,0.4,0.5,0.8,1,1c0,0,0.7,0.2,1.2-0.1c0.3-0.2,0.2-0.5,0.4-0.8
			               c0.4-0.8,1.3-1,1.6-1.1c0.8-0.2,1.5,0,2.1,0.1c0.4,0.1,1.2,0.4,1.9,1.1c0.3,0.3,0.5,0.7,0.6,0.9v1h7.5v-9h-7.5v1.3
			               c-0.1,0.2-0.3,0.6-0.6,0.9c-0.6,0.7-1.4,1-1.9,1.1c-0.6,0.2-1.2,0.4-2.1,0.1c-0.3-0.1-1.2-0.3-1.6-1.1c-0.2-0.4-0.2-0.6-0.4-0.8
			               c-0.5-0.4-1.2-0.1-1.2-0.1c-0.5,0.2-0.8,0.6-1,1C103.2,92.3,103.1,93.1,103.1,93.7z"/>
	  <path class="st7" d="M110.8,87.7c0,0.5,0,1.4-0.5,2.3c-0.2,0.4-0.5,0.8-1,1c0,0-0.7,0.2-1.2-0.1c-0.3-0.2-0.2-0.5-0.4-0.8
			               c-0.4-0.8-1.3-1-1.6-1.1c-0.8-0.2-1.5,0-2.1,0.1c-0.4,0.1-1.2,0.4-1.9,1.1c-0.3,0.3-0.5,0.7-0.6,0.9v1h-7.5v-9h7.5v1.3
			               c0.1,0.2,0.3,0.6,0.6,0.9c0.6,0.7,1.4,1,1.9,1.1c0.6,0.2,1.2,0.4,2.1,0.1c0.3-0.1,1.2-0.3,1.6-1.1c0.2-0.4,0.2-0.6,0.4-0.8
			               c0.5-0.4,1.2-0.1,1.2-0.1c0.5,0.2,0.8,0.6,1,1C110.8,86.3,110.8,87.2,110.8,87.7z"/>
	  <path class="st7" d="M110.8,75.8c0,0.5,0,1.4-0.5,2.3c-0.2,0.4-0.5,0.8-1,1c0,0-0.7,0.2-1.2-0.1c-0.3-0.2-0.2-0.5-0.4-0.8
			               c-0.4-0.8-1.3-1-1.6-1.1c-0.8-0.2-1.5,0-2.1,0.1c-0.4,0.1-1.2,0.4-1.9,1.1c-0.3,0.3-0.5,0.7-0.6,0.9v1h-7.5v-9h7.5v1.3
			               c0.1,0.2,0.3,0.6,0.6,0.9c0.6,0.7,1.4,1,1.9,1.1c0.6,0.2,1.2,0.4,2.1,0.1c0.3-0.1,1.2-0.3,1.6-1.1c0.2-0.4,0.2-0.6,0.4-0.8
			               c0.5-0.4,1.2-0.1,1.2-0.1c0.5,0.2,0.8,0.6,1,1C110.8,74.4,110.8,75.3,110.8,75.8z"/>
	  <path class="st7" d="M102.9,81.8c0,0.5,0,1.4,0.5,2.3c0.2,0.4,0.5,0.8,1,1c0,0,0.7,0.2,1.2-0.1c0.3-0.2,0.2-0.5,0.4-0.8
			               c0.4-0.8,1.3-1,1.6-1.1c0.8-0.2,1.5,0,2.1,0.1c0.4,0.1,1.2,0.4,1.9,1.1c0.3,0.3,0.5,0.7,0.6,0.9v1h7.5v-9h-7.5v1.3
			               c-0.1,0.2-0.3,0.6-0.6,0.9c-0.6,0.7-1.4,1-1.9,1.1c-0.6,0.2-1.2,0.4-2.1,0.1c-0.3-0.1-1.2-0.3-1.6-1.1c-0.2-0.4-0.2-0.6-0.4-0.8
			               c-0.5-0.4-1.2-0.1-1.2-0.1c-0.5,0.2-0.8,0.6-1,1C103,80.4,102.9,81.2,102.9,81.8z"/>
	  <path class="st7" d="M102.9,69.9c0,0.5,0,1.4,0.5,2.3c0.2,0.4,0.5,0.8,1,1c0,0,0.7,0.2,1.2-0.1c0.3-0.2,0.2-0.5,0.4-0.8
			               c0.4-0.8,1.3-1,1.6-1.1c0.8-0.2,1.5,0,2.1,0.1c0.4,0.1,1.2,0.4,1.9,1.1c0.3,0.3,0.5,0.7,0.6,0.9v1h7.5v-9h-7.5v1.3
			               c-0.1,0.2-0.3,0.6-0.6,0.9c-0.6,0.7-1.4,1-1.9,1.1c-0.6,0.2-1.2,0.4-2.1,0.1c-0.3-0.1-1.2-0.3-1.6-1.1c-0.2-0.4-0.2-0.6-0.4-0.8
			               c-0.5-0.4-1.2-0.1-1.2-0.1c-0.5,0.2-0.8,0.6-1,1C103,68.5,102.9,69.3,102.9,69.9z"/>
	  <path class="st7" d="M111,63.9c0,0.5,0,1.4-0.5,2.3c-0.2,0.4-0.5,0.8-1,1c0,0-0.7,0.2-1.2-0.1c-0.3-0.2-0.2-0.5-0.4-0.8
			               c-0.4-0.8-1.3-1-1.6-1.1c-0.8-0.2-1.5,0-2.1,0.1c-0.4,0.1-1.2,0.4-1.9,1.1c-0.3,0.3-0.5,0.7-0.6,0.9v1h-7.5v-9h7.5v1.3
			               c0.1,0.2,0.3,0.6,0.6,0.9c0.6,0.7,1.4,1,1.9,1.1c0.6,0.2,1.2,0.4,2.1,0.1c0.3-0.1,1.2-0.3,1.6-1.1c0.2-0.4,0.2-0.6,0.4-0.8
			               c0.5-0.4,1.2-0.1,1.2-0.1c0.5,0.2,0.8,0.6,1,1C110.9,62.5,111,63.4,111,63.9z"/>
	  <path class="st7" d="M111,52c0,0.5,0,1.4-0.5,2.3c-0.2,0.4-0.5,0.8-1,1c0,0-0.7,0.2-1.2-0.1c-0.3-0.2-0.2-0.5-0.4-0.8
			               c-0.4-0.8-1.3-1-1.6-1.1c-0.8-0.2-1.5,0-2.1,0.1c-0.4,0.1-1.2,0.4-1.9,1.1c-0.3,0.3-0.5,0.7-0.6,0.9v1h-7.5v-9h7.5v1.3
			               c0.1,0.2,0.3,0.6,0.6,0.9c0.6,0.7,1.4,1,1.9,1.1c0.6,0.2,1.2,0.4,2.1,0.1c0.3-0.1,1.2-0.3,1.6-1.1c0.2-0.4,0.2-0.6,0.4-0.8
			               c0.5-0.4,1.2-0.1,1.2-0.1c0.5,0.2,0.8,0.6,1,1C110.9,50.6,111,51.5,111,52z"/>
	  <path class="st7" d="M103.1,58c0,0.5,0,1.4,0.5,2.3c0.2,0.4,0.5,0.8,1,1c0,0,0.7,0.2,1.2-0.1c0.3-0.2,0.2-0.5,0.4-0.8
			               c0.4-0.8,1.3-1,1.6-1.1c0.8-0.2,1.5,0,2.1,0.1c0.4,0.1,1.2,0.4,1.9,1.1c0.3,0.3,0.5,0.7,0.6,0.9v1h7.5v-9h-7.5v1.3
			               c-0.1,0.2-0.3,0.6-0.6,0.9c-0.6,0.7-1.4,1-1.9,1.1c-0.6,0.2-1.2,0.4-2.1,0.1c-0.3-0.1-1.2-0.3-1.6-1.1c-0.2-0.4-0.2-0.6-0.4-0.8
			               c-0.5-0.4-1.2-0.1-1.2-0.1c-0.5,0.2-0.8,0.6-1,1C103.2,56.5,103.1,57.4,103.1,58z"/>
	  <path class="st7" d="M103.1,46c0,0.5,0,1.4,0.5,2.3c0.2,0.4,0.5,0.8,1,1c0,0,0.7,0.2,1.2-0.1c0.3-0.2,0.2-0.5,0.4-0.8
			               c0.4-0.8,1.3-1,1.6-1.1c0.8-0.2,1.5,0,2.1,0.1c0.4,0.1,1.2,0.4,1.9,1.1c0.3,0.3,0.5,0.7,0.6,0.9v1h7.5v-9h-7.5v1.3
			               c-0.1,0.2-0.3,0.6-0.6,0.9c-0.6,0.7-1.4,1-1.9,1.1c-0.6,0.2-1.2,0.4-2.1,0.1c-0.3-0.1-1.2-0.3-1.6-1.1c-0.2-0.4-0.2-0.6-0.4-0.8
			               c-0.5-0.4-1.2-0.1-1.2-0.1c-0.5,0.2-0.8,0.6-1,1C103.2,44.6,103.1,45.5,103.1,46z"/>
	</g>
	<g id="tirette">
	  <path class="st8" d="M127.6,68.7c-1.1-10.4-2.5-18.2-3.1-21.4c-2.2-12.4-2.8-22.3-3.1-28.2c-0.3-5.7-0.4-10.3-0.4-13.4l-14.5,0.1
			               h-0.2L91.9,5.7c0,3.1-0.1,7.7-0.4,13.4c-0.3,5.9-0.9,15.8-3.1,28.2c-0.6,3.2-2,11-3.1,21.4c-0.5,4.8-0.6,7,0.5,9.5
			               c3.2,7.4,12.8,9.8,14.4,10.2c2.2,0.5,4.1,0.6,5.4,0.6h1.6c1.3,0,3.2-0.1,5.4-0.6c1.6-0.4,11.3-2.8,14.4-10.2
			               C128.2,75.7,128.1,73.5,127.6,68.7z M106.3,81.9c-7,0-12.6-4.4-12.6-9.8c0-5.4,5.6-9.9,12.6-9.9s12.6,4.4,12.6,9.9
			               C119,77.5,113.3,81.9,106.3,81.9z"/>
	  <path class="st9" d="M119,72.1c0,5.4-5.6,9.8-12.6,9.8s-12.6-4.4-12.6-9.8c0-5.4,5.6-9.9,12.6-9.9S119,66.6,119,72.1z"/>
	  <path class="st10" d="M131.1-11.9c-0.4,1.8-1,2.9-1.9,5.2c-3.7,8.5-4.3,9.6-5,11.7c-0.5,1.6-1.2,3.9-1.8,6.8V4.1
			                c-5.3,0-10.6-0.1-15.9-0.1h-0.7c-5.3,0-10.6,0.1-15.9,0.1v7.6c-0.6-2.9-1.3-5.3-1.8-6.8c-0.7-2.1-1.3-3.3-5-11.7
			                c-1-2.2-1.5-3.4-1.9-5.2c-0.7-2.9-1.2-4.8-0.5-6.7c1.1-3,4.4-4.3,8.2-5.8c2.9-1.1,5.3-1.5,7.6-1.9c3.8-0.6,7.1-0.8,9.7-0.8
			                c2.5,0,5.8,0.1,9.7,0.8c2.3,0.4,4.7,0.8,7.6,1.9c3.9,1.5,7.2,2.8,8.2,5.8C132.3-16.7,131.8-14.8,131.1-11.9z"/>
	  <path class="st11" d="M108.7,30.2h-4c-1.4,0-2.6-1.2-2.6-2.6v-39.2c0-1.4,1.2-2.6,2.6-2.6h4c1.4,0,2.6,1.2,2.6,2.6v39.2
			                C111.3,29.1,110.1,30.2,108.7,30.2z"/>
	  <rect x="99" y="25.3" class="st9" width="15.5" height="9.9"/>
	</g>
  </g>
  <g id="Extension" transform="translate(0, 185.4)">
	<rect y="0" class="extension-fond" width="210" height="114.6"/>
	<text x="50%" y="65" class="extension-text">PDF</text>
  </g>
  <g id="dogear">
	<polygon class="ear" points="180.7,29.5 151.4,0.3 151.4,58.8 210,58.8 	"/>
	<polygon class="back" points="180.7,29.3 210,58.6 210,0 151.4,0 	"/>
  </g>
</g>
</svg>
